<mxfile host="app.diagrams.net" modified="2023-10-10T09:41:02.017Z" agent="Mozilla/5.0 (Windows NT 10.0; Win64; x64) AppleWebKit/537.36 (KHTML, like Gecko) Chrome/117.0.0.0 Safari/537.36" etag="PisGVqRTR2kdYq6YDCP8" version="22.0.4" type="device">
  <diagram name="Page-1" id="Vs4zx8Fj8xCGuVntUeUO">
    <mxGraphModel dx="1034" dy="1556" grid="1" gridSize="10" guides="1" tooltips="1" connect="1" arrows="1" fold="1" page="1" pageScale="1" pageWidth="850" pageHeight="1100" math="0" shadow="0">
      <root>
        <mxCell id="0" />
        <mxCell id="1" parent="0" />
        <mxCell id="b-DjqpeE9gLwV9SFkpqp-34" style="edgeStyle=orthogonalEdgeStyle;rounded=0;orthogonalLoop=1;jettySize=auto;html=1;exitX=0.5;exitY=1;exitDx=0;exitDy=0;exitPerimeter=0;entryX=0.5;entryY=0;entryDx=0;entryDy=0;" edge="1" parent="1" source="b-DjqpeE9gLwV9SFkpqp-1" target="b-DjqpeE9gLwV9SFkpqp-33">
          <mxGeometry relative="1" as="geometry" />
        </mxCell>
        <mxCell id="b-DjqpeE9gLwV9SFkpqp-1" value="Start" style="strokeWidth=2;html=1;shape=mxgraph.flowchart.start_1;whiteSpace=wrap;" vertex="1" parent="1">
          <mxGeometry x="360" y="-70" width="100" height="60" as="geometry" />
        </mxCell>
        <mxCell id="b-DjqpeE9gLwV9SFkpqp-3" value="travel&lt;br&gt;&amp;nbsp;request raise by&lt;br&gt;emp&amp;nbsp;" style="shape=parallelogram;html=1;strokeWidth=2;perimeter=parallelogramPerimeter;whiteSpace=wrap;rounded=1;arcSize=12;size=0.23;" vertex="1" parent="1">
          <mxGeometry x="345" y="140" width="130" height="60" as="geometry" />
        </mxCell>
        <mxCell id="b-DjqpeE9gLwV9SFkpqp-6" style="edgeStyle=orthogonalEdgeStyle;rounded=0;orthogonalLoop=1;jettySize=auto;html=1;exitX=1;exitY=0.5;exitDx=0;exitDy=0;" edge="1" parent="1" source="b-DjqpeE9gLwV9SFkpqp-4">
          <mxGeometry relative="1" as="geometry">
            <mxPoint x="560" y="270" as="targetPoint" />
          </mxGeometry>
        </mxCell>
        <mxCell id="b-DjqpeE9gLwV9SFkpqp-29" style="edgeStyle=orthogonalEdgeStyle;rounded=0;orthogonalLoop=1;jettySize=auto;html=1;exitX=0.5;exitY=1;exitDx=0;exitDy=0;entryX=0.5;entryY=0;entryDx=0;entryDy=0;" edge="1" parent="1" source="b-DjqpeE9gLwV9SFkpqp-4" target="b-DjqpeE9gLwV9SFkpqp-15">
          <mxGeometry relative="1" as="geometry" />
        </mxCell>
        <mxCell id="b-DjqpeE9gLwV9SFkpqp-4" value="Approved?" style="rhombus;whiteSpace=wrap;html=1;strokeWidth=2;rounded=1;arcSize=12;" vertex="1" parent="1">
          <mxGeometry x="375" y="230" width="80" height="80" as="geometry" />
        </mxCell>
        <mxCell id="b-DjqpeE9gLwV9SFkpqp-9" value="Approved" style="text;html=1;strokeColor=none;fillColor=none;align=center;verticalAlign=middle;whiteSpace=wrap;rounded=0;rotation=90;" vertex="1" parent="1">
          <mxGeometry x="365" y="340" width="60" height="30" as="geometry" />
        </mxCell>
        <mxCell id="b-DjqpeE9gLwV9SFkpqp-10" value="Rejected" style="text;html=1;strokeColor=none;fillColor=none;align=center;verticalAlign=middle;whiteSpace=wrap;rounded=0;" vertex="1" parent="1">
          <mxGeometry x="470" y="250" width="60" height="30" as="geometry" />
        </mxCell>
        <mxCell id="b-DjqpeE9gLwV9SFkpqp-32" value="" style="edgeStyle=orthogonalEdgeStyle;rounded=0;orthogonalLoop=1;jettySize=auto;html=1;" edge="1" parent="1" source="b-DjqpeE9gLwV9SFkpqp-11" target="b-DjqpeE9gLwV9SFkpqp-31">
          <mxGeometry relative="1" as="geometry" />
        </mxCell>
        <mxCell id="b-DjqpeE9gLwV9SFkpqp-11" value="Cancel request" style="rounded=1;whiteSpace=wrap;html=1;" vertex="1" parent="1">
          <mxGeometry x="560" y="245" width="120" height="50" as="geometry" />
        </mxCell>
        <mxCell id="b-DjqpeE9gLwV9SFkpqp-16" style="edgeStyle=orthogonalEdgeStyle;rounded=0;orthogonalLoop=1;jettySize=auto;html=1;exitX=0.5;exitY=1;exitDx=0;exitDy=0;" edge="1" parent="1" source="b-DjqpeE9gLwV9SFkpqp-15">
          <mxGeometry relative="1" as="geometry">
            <mxPoint x="415" y="690" as="targetPoint" />
          </mxGeometry>
        </mxCell>
        <mxCell id="b-DjqpeE9gLwV9SFkpqp-19" style="edgeStyle=orthogonalEdgeStyle;rounded=0;orthogonalLoop=1;jettySize=auto;html=1;exitX=1;exitY=0.5;exitDx=0;exitDy=0;entryX=0;entryY=0.5;entryDx=0;entryDy=0;" edge="1" parent="1" source="b-DjqpeE9gLwV9SFkpqp-15">
          <mxGeometry relative="1" as="geometry">
            <mxPoint x="590" y="550" as="targetPoint" />
          </mxGeometry>
        </mxCell>
        <mxCell id="b-DjqpeE9gLwV9SFkpqp-15" value="Booking available?" style="rhombus;whiteSpace=wrap;html=1;" vertex="1" parent="1">
          <mxGeometry x="375" y="510" width="80" height="80" as="geometry" />
        </mxCell>
        <mxCell id="b-DjqpeE9gLwV9SFkpqp-25" style="edgeStyle=orthogonalEdgeStyle;rounded=0;orthogonalLoop=1;jettySize=auto;html=1;exitX=0.5;exitY=1;exitDx=0;exitDy=0;" edge="1" parent="1" source="b-DjqpeE9gLwV9SFkpqp-17">
          <mxGeometry relative="1" as="geometry">
            <mxPoint x="415" y="810" as="targetPoint" />
          </mxGeometry>
        </mxCell>
        <mxCell id="b-DjqpeE9gLwV9SFkpqp-17" value="Confirmed" style="rounded=1;whiteSpace=wrap;html=1;" vertex="1" parent="1">
          <mxGeometry x="355" y="690" width="120" height="60" as="geometry" />
        </mxCell>
        <mxCell id="b-DjqpeE9gLwV9SFkpqp-20" value="Available" style="text;html=1;align=center;verticalAlign=middle;resizable=0;points=[];autosize=1;strokeColor=none;fillColor=none;rotation=90;" vertex="1" parent="1">
          <mxGeometry x="360" y="618" width="70" height="30" as="geometry" />
        </mxCell>
        <mxCell id="b-DjqpeE9gLwV9SFkpqp-21" value="Not available" style="text;html=1;align=center;verticalAlign=middle;resizable=0;points=[];autosize=1;strokeColor=none;fillColor=none;" vertex="1" parent="1">
          <mxGeometry x="455" y="518" width="90" height="30" as="geometry" />
        </mxCell>
        <mxCell id="b-DjqpeE9gLwV9SFkpqp-27" style="edgeStyle=orthogonalEdgeStyle;rounded=0;orthogonalLoop=1;jettySize=auto;html=1;" edge="1" parent="1" source="b-DjqpeE9gLwV9SFkpqp-26">
          <mxGeometry relative="1" as="geometry">
            <mxPoint x="415" y="920" as="targetPoint" />
          </mxGeometry>
        </mxCell>
        <mxCell id="b-DjqpeE9gLwV9SFkpqp-26" value="Status : Closed" style="rounded=1;whiteSpace=wrap;html=1;" vertex="1" parent="1">
          <mxGeometry x="355" y="810" width="120" height="60" as="geometry" />
        </mxCell>
        <mxCell id="b-DjqpeE9gLwV9SFkpqp-28" value="End" style="strokeWidth=2;html=1;shape=mxgraph.flowchart.terminator;whiteSpace=wrap;" vertex="1" parent="1">
          <mxGeometry x="370" y="920" width="100" height="60" as="geometry" />
        </mxCell>
        <mxCell id="b-DjqpeE9gLwV9SFkpqp-30" value="Status: Closed" style="rounded=1;whiteSpace=wrap;html=1;" vertex="1" parent="1">
          <mxGeometry x="590" y="520" width="120" height="60" as="geometry" />
        </mxCell>
        <mxCell id="b-DjqpeE9gLwV9SFkpqp-31" value="Status:Closed" style="whiteSpace=wrap;html=1;rounded=1;" vertex="1" parent="1">
          <mxGeometry x="560" y="370" width="120" height="60" as="geometry" />
        </mxCell>
        <mxCell id="b-DjqpeE9gLwV9SFkpqp-35" style="edgeStyle=orthogonalEdgeStyle;rounded=0;orthogonalLoop=1;jettySize=auto;html=1;exitX=0.5;exitY=1;exitDx=0;exitDy=0;entryX=0.5;entryY=0;entryDx=0;entryDy=0;" edge="1" parent="1" source="b-DjqpeE9gLwV9SFkpqp-33" target="b-DjqpeE9gLwV9SFkpqp-3">
          <mxGeometry relative="1" as="geometry" />
        </mxCell>
        <mxCell id="b-DjqpeE9gLwV9SFkpqp-33" value="Add Employee" style="rounded=1;whiteSpace=wrap;html=1;" vertex="1" parent="1">
          <mxGeometry x="350" y="40" width="120" height="60" as="geometry" />
        </mxCell>
        <mxCell id="b-DjqpeE9gLwV9SFkpqp-36" style="edgeStyle=orthogonalEdgeStyle;rounded=0;orthogonalLoop=1;jettySize=auto;html=1;exitX=0.5;exitY=1;exitDx=0;exitDy=0;entryX=0.454;entryY=0.1;entryDx=0;entryDy=0;entryPerimeter=0;" edge="1" parent="1" source="b-DjqpeE9gLwV9SFkpqp-3" target="b-DjqpeE9gLwV9SFkpqp-4">
          <mxGeometry relative="1" as="geometry" />
        </mxCell>
      </root>
    </mxGraphModel>
  </diagram>
</mxfile>
